# xmcd
#
# Track frame offsets:
#	150
#	10971
#	23045
#	36201
#	48977
#	60467
#	73494
#	85165
#	96770
#	107682
#	119042
#	132180
#	143718
#	155572
#	166606
#	178362
#	191019
#	203276
#	215303
#	227698
#
# Disc length: 3213 seconds
#
# Revision: 1
# Processed by: cddbd v1.5.2PL0 Copyright (c) Steve Scherf et al.
# Submitted via: audiograbber 1.83.01
#
DISCID=130c8b14
DTITLE=Hank Williams - 40 Original Recordings CD2
DYEAR=2010
DGENRE=Country
TTITLE0=I Can't Help It (If I'm Still In Love With You)
TTITLE1=Your Cheatin'heart
TTITLE2=Mind Your Own Business
TTITLE3=I'm A Long Gone Daddy
TTITLE4=Baby We're Really In Love
TTITLE5=A House Without Love
TTITLE6=Dear John
TTITLE7=A Mansion On The Hill
TTITLE8=I'll Never Get Out Of This World Alive
TTITLE9=Nobody's Lonesome For Me
TTITLE10=Hey Good Lookin'
TTITLE11=My Son Calls Another Man Daddy
TTITLE12=Why Should We Try Anymore
TTITLE13=Crazy Heart
TTITLE14=Take These Chains From My Heart
TTITLE15=I Just Don't Like This Kind Of Livin'
TTITLE16=Howlin' At The Moon
TTITLE17=I Won't Be Home No More
TTITLE18=They'll Never Take Her Love From Me
TTITLE19=Too Many Parties And Too Many Pals
EXTD=
EXTT0=
EXTT1=
EXTT2=
EXTT3=
EXTT4=
EXTT5=
EXTT6=
EXTT7=
EXTT8=
EXTT9=
EXTT10=
EXTT11=
EXTT12=
EXTT13=
EXTT14=
EXTT15=
EXTT16=
EXTT17=
EXTT18=
EXTT19=
PLAYORDER=
